<?xml version="1.0" encoding="UTF-8"?><svg id="Layer_1" xmlns="http://www.w3.org/2000/svg" viewBox="0 0 500 500"><defs><style>.cls-1{fill:#fff;}</style></defs><path class="cls-1" d="M428.51,255.73c0,76.38-47.97,141.56-115.43,167.05h-16.64c-.76-1.49-.86-3.47-.86-3.83v-59.18c0-9.21-4.72-19.51-11.88-25.84,64.87-8.38,79.88-42.77,79.88-83.93,0-19.29-6.08-36.56-17.81-50.47,1.68-7,3.35-16.24,2.95-24.09-.5-9.65-4.65-24.11-4.65-24.11,0,0-13.34-2.16-30.26,7.15-8.46,4.65-14.52,8.46-18.45,11.09-13.21-3.55-28.23-5.46-44.98-5.46s-32.31,1.75-45.75,5.13c-3.93-2.61-9.85-6.3-17.96-10.76-16.93-9.31-30.26-7.15-30.26-7.15,0,0-4.16,14.46-4.66,24.11-.38,7.41,1.09,16.06,2.67,22.9-11.31,13.57-17.24,30.93-17.24,51.66,0,41.38,13.11,75.92,80.16,84.07-6.98,6.26-11.6,16.3-11.71,25.35-3.86,1.94-9.88,3.9-18.46,3.9-16.96,0-25.44-8.48-28.27-13.47-2.82-4.98-8.48-14.3-15.13-18.12-6.65-3.82-10.64-5.71-16.96-5.99-7.65-.33-9.16,3.31-5.15,6.65,3.99,3.33,11.64,6.99,16.29,15.3,3.5,6.25,8.98,24.44,19.79,30.1,10.81,5.65,12.3,6.31,29.59,6.31,8.14,0,14.18-.36,18.29-.75v35.6c0,.34-.35,2.42-1.43,3.83h-17.25c-67.47-25.49-115.44-90.66-115.44-167.05,0-98.59,79.92-178.51,178.51-178.51s178.5,79.92,178.5,178.51Z"/></svg>